<svg width="20" height="20" viewBox="0 0 20 20" fill="none" xmlns="http://www.w3.org/2000/svg">
<path d="M1.24709 11.0149L1.31615 10.9052L5.47948 4.31823C5.54029 4.22176 5.68473 4.23041 5.73178 4.33414C6.44274 5.89538 7.05967 7.83939 6.78296 9.05556C6.66473 9.55598 6.33682 10.2352 5.96708 10.8636C5.91948 10.955 5.86692 11.0447 5.811 11.1312C5.78467 11.1711 5.74002 11.1947 5.69189 11.1951L1.37114 11.2338C1.255 11.2348 1.18626 11.1098 1.24709 11.0149Z" fill="#121212"/>
<path d="M19.9625 12.0777L19.9685 13.1141C19.9688 13.1735 19.9326 13.2268 19.8797 13.2504C19.5556 13.3921 18.446 13.9112 17.9871 14.5566C16.8161 16.2051 15.9277 18.5553 13.9115 18.5734L5.50034 18.6486C2.51919 18.6753 0.0894329 16.2804 0.0721555 13.2986L0.0715999 13.2028C0.0711402 13.1234 0.135426 13.0584 0.21504 13.0577L4.90392 13.0157C4.99676 13.0149 5.06526 13.1002 5.0575 13.1912C5.02609 13.4957 5.08426 13.8059 5.23014 14.0872C5.51198 14.6484 6.09101 14.9953 6.71444 14.9897L9.03566 14.9689L9.02519 13.1624L6.73047 13.1829C6.61277 13.1839 6.54234 13.049 6.60978 12.9525C6.63441 12.9143 6.66237 12.8744 6.69195 12.8295C6.90739 12.5201 7.21465 12.0397 7.51991 11.4931C7.72833 11.1243 7.93001 10.7307 8.09187 10.3359C8.12463 10.2645 8.15075 10.1916 8.17684 10.1202C8.22091 9.99425 8.26663 9.87647 8.29912 9.75884C8.33169 9.65937 8.35762 9.55499 8.38359 9.45723C8.45959 9.12266 8.49071 8.76865 8.48859 8.40171C8.48775 8.25792 8.48025 8.10758 8.46614 7.96387C8.4586 7.80692 8.43779 7.65008 8.41697 7.49324C8.4029 7.3545 8.37725 7.21755 8.34988 7.074C8.31549 6.86437 8.26788 6.65654 8.21359 6.44709L8.19491 6.36792C8.15427 6.22449 8.12034 6.08758 8.07306 5.94421C7.93948 5.49414 7.78602 5.05583 7.62448 4.6457C7.56551 4.48259 7.49825 4.32616 7.43103 4.16974C7.33183 3.93423 7.23111 3.72026 7.13877 3.51777C7.09179 3.42563 7.05149 3.34168 7.01122 3.25609C6.9659 3.15897 6.9189 3.06189 6.87195 2.96971C6.83837 2.89894 6.79983 2.83318 6.77294 2.76731L6.48639 2.24754C6.44617 2.17682 6.51203 2.09193 6.59005 2.11272L8.36693 2.57619L8.37191 2.57614C8.37521 2.57611 8.37691 2.57774 8.37856 2.57773L8.61271 2.6401L8.87012 2.71051L8.96478 2.73612L8.95868 1.68492C8.95574 1.17748 9.36126 0.762274 9.8653 0.757766C10.1173 0.755511 10.3467 0.855925 10.5118 1.02141C10.6769 1.1869 10.7811 1.41406 10.7825 1.66861L10.7916 3.22889L10.9809 3.28008C10.9959 3.28491 11.0108 3.29139 11.0241 3.30118C11.0707 3.33548 11.1373 3.38615 11.2223 3.44817C11.2889 3.50049 11.3606 3.56431 11.4472 3.62964C11.6188 3.76532 11.8237 3.94035 12.0487 4.14163C12.1087 4.19236 12.1671 4.24472 12.2204 4.29715C12.5105 4.56231 12.8356 4.87348 13.146 5.21782C13.2328 5.31454 13.3179 5.41296 13.4048 5.51633C13.4916 5.62134 13.5834 5.72467 13.6636 5.8281C13.7688 5.96598 13.8824 6.10876 13.9811 6.25832C14.0279 6.32898 14.0814 6.40122 14.1266 6.47189C14.2537 6.66085 14.3659 6.85655 14.4732 7.05227C14.5185 7.14278 14.5655 7.24153 14.6058 7.33871C14.7251 7.60045 14.8195 7.86739 14.8807 8.13463C14.8993 8.19231 14.9129 8.25501 14.9199 8.31115L14.92 8.32434C14.9403 8.40353 14.9474 8.48777 14.9545 8.57365C14.9827 8.84776 14.971 9.12226 14.9129 9.39882C14.8887 9.51642 14.8562 9.62743 14.8171 9.74516C14.7779 9.85791 14.7388 9.9756 14.6881 10.0868C14.5899 10.3174 14.4735 10.5483 14.3355 10.7644C14.2912 10.8441 14.2386 10.9289 14.186 11.0087C14.1285 11.0935 14.0693 11.1734 14.0167 11.2515C13.9443 11.3514 13.867 11.4562 13.7879 11.5494C13.7172 11.6476 13.6448 11.7458 13.5657 11.8324C13.4554 11.964 13.35 12.0889 13.2396 12.2089C13.1737 12.2872 13.1029 12.3672 13.0303 12.4389C12.9595 12.5189 12.8869 12.5906 12.821 12.6573C12.7106 12.769 12.6182 12.8558 12.5407 12.9276L12.3593 13.0962C12.3329 13.1195 12.2982 13.1331 12.2617 13.1334L10.849 13.146L10.8595 14.9526L12.6369 14.9367C13.0348 14.9332 13.412 14.7893 13.7156 14.5287C13.8196 14.4369 14.2732 14.0394 14.8087 13.4412C14.8268 13.4212 14.8499 13.4061 14.8764 13.3993L19.7776 11.9405C19.8687 11.9132 19.9619 11.9818 19.9625 12.0777Z" fill="#121212"/>
</svg>
