<svg width="20" height="20" viewBox="0 0 20 20" fill="none" xmlns="http://www.w3.org/2000/svg">
<g clip-path="url(#clip0_75_3222)">
<path d="M20 3.92393C19.2563 4.25018 18.4638 4.46643 17.6375 4.57143C18.4875 4.06393 19.1363 3.26643 19.4413 2.30518C18.6488 2.77768 17.7738 3.11143 16.8413 3.29768C16.0888 2.49643 15.0163 2.00018 13.8463 2.00018C11.5763 2.00018 9.74875 3.84268 9.74875 6.10143C9.74875 6.42643 9.77625 6.73893 9.84375 7.03643C6.435 6.87018 3.41875 5.23643 1.3925 2.74768C-0.0565001 5.35843 1.5625 7.49893 2.6525 8.22768C1.99375 8.21518 1.3475 8.02393 0.8 7.72268C0.8 9.75793 2.22125 11.4152 4.085 11.7964C3.6775 11.9317 2.78725 12.0052 2.23375 11.8614C2.765 13.4852 4.2725 14.6789 6.065 14.7177C4.67 15.8089 2.61425 16.6984 0 16.4102C1.81625 17.5814 3.96875 18.2502 6.29 18.2502C13.835 18.2502 17.96 12.0002 17.96 6.58268C17.96 6.40143 17.9538 6.22643 17.945 6.05268C18.7588 5.47518 19.4425 4.75393 20 3.92393Z" fill="#121212"/>
</g>
<defs>
<clipPath id="clip0_75_3222">
<rect width="20" height="20" fill="white"/>
</clipPath>
</defs>
</svg>
