<svg width="293" height="80" viewBox="0 0 293 80" fill="none" xmlns="http://www.w3.org/2000/svg">
<path d="M292.206 8.20717C292.597 7.81664 292.597 7.18348 292.206 6.79296L285.842 0.428979C285.452 0.0384568 284.818 0.0384589 284.428 0.428985C284.037 0.819502 284.037 1.45267 284.428 1.8432L290.085 7.50006L284.428 13.1569C284.037 13.5474 284.037 14.1806 284.428 14.5711C284.818 14.9616 285.452 14.9616 285.842 14.5711L292.206 8.20717ZM0.680445 77.0356L38.9792 78.9602L39.0796 76.9627L0.78082 75.0381L0.680445 77.0356ZM246.042 8.49999L291.499 8.50006L291.499 6.50006L246.042 6.49999L246.042 8.49999ZM147.128 43.6064C175.091 20.8961 210.018 8.49993 246.042 8.49999L246.042 6.49999C209.559 6.49993 174.187 19.0541 145.867 42.0539L147.128 43.6064ZM38.9792 78.9602C78.1569 80.9289 116.678 68.3363 147.128 43.6064L145.867 42.0539C115.801 66.4725 77.7641 78.9066 39.0796 76.9627L38.9792 78.9602Z" fill="#121212"/>
</svg>
